#Comment line ignore any data following # character 
#Hierarchical Translation and Rotation (.htr) file 
[Header]	
#Header keywords are followed by a single value 
FileType HTR		#Single word string
DataType HTRS		#Translation followed by rotation and scale data
FileVersion 1		#integer
NumSegments 84		#integer
NumFrames 2		#integer
DataFrameRate 30		#integer, data frame rate in this file
EulerRotationOrder ZYX
CalibrationUnits mm
RotationUnits Degrees
GlobalAxisofGravity Y
BoneLengthAxis Y
ScaleFactor 1.00
[SegmentNames&Hierarchy]
#CHILD	PARENT
MASTER GLOBAL
root MASTER
chest root
L_mid_tent01 root
R_mid_tent01 root
spine01 root
Bip01_Neck chest
L_humerus chest
R_humerus chest
weapon_bone chest
Bip01_Head Bip01_Neck
eye_left_bone Bip01_Head
eye_right_bone Bip01_Head
L_forearm L_humerus
L_front_hand L_forearm
L_weapon_bone L_forearm
L_front_hand01_01 L_front_hand
L_front_hand02_01 L_front_hand
L_front_hand03_01 L_front_hand
L_front_hand01_02 L_front_hand01_01
L_front_hand02_02 L_front_hand02_01
L_front_hand03_02 L_front_hand03_01
R_forearm R_humerus
R_front_hand R_forearm
R_weapon_bone R_forearm
R_front_hand01_01 R_front_hand
R_front_hand02_01 R_front_hand
R_front_hand03_01 R_front_hand
R_front_hand01_02 R_front_hand01_01
R_front_hand02_02 R_front_hand02_01
R_front_hand03_02 R_front_hand03_01
null_rope01_connect L_mid_tent01
Rope1_Seg01 null_rope01_connect
Rope1_Seg02 Rope1_Seg01
Rope1_Seg03 Rope1_Seg02
Rope1_Seg04 Rope1_Seg03
Rope1_Seg05 Rope1_Seg04
Rope1_Seg06 Rope1_Seg05
Rope1_Seg07 Rope1_Seg06
Rope1_Seg09 Rope1_Seg07
L_mid_hand01 Rope1_Seg09
L_mid_hand02 Rope1_Seg09
L_mid_hand03 Rope1_Seg09
null_rope02_connect R_mid_tent01
Rope2_Seg01 null_rope02_connect
Rope2_Seg02 Rope2_Seg01
Rope2_Seg03 Rope2_Seg02
Rope2_Seg04 Rope2_Seg03
Rope2_Seg05 Rope2_Seg04
Rope2_Seg06 Rope2_Seg05
Rope2_Seg07 Rope2_Seg06
Rope2_Seg09 Rope2_Seg07
R_mid_hand01 Rope2_Seg09
R_mid_hand02 Rope2_Seg09
R_mid_hand03 Rope2_Seg09
spine02 spine01
spine03 spine02
pelvis spine03
null_rope03_connect pelvis
null_rope04_connect pelvis
Rope3_Seg01 null_rope03_connect
Rope3_Seg02 Rope3_Seg01
Rope3_Seg03 Rope3_Seg02
Rope3_Seg04 Rope3_Seg03
Rope3_Seg05 Rope3_Seg04
Rope3_Seg06 Rope3_Seg05
Rope3_Seg07 Rope3_Seg06
Rope3_Seg08 Rope3_Seg07
Rope3_Seg09 Rope3_Seg08
R_rear_hand01 Rope3_Seg09
R_rear_hand02 Rope3_Seg09
R_rear_hand03 Rope3_Seg09
Rope4_Seg01 null_rope04_connect
Rope4_Seg02 Rope4_Seg01
Rope4_Seg03 Rope4_Seg02
Rope4_Seg04 Rope4_Seg03
Rope4_Seg05 Rope4_Seg04
Rope4_Seg06 Rope4_Seg05
Rope4_Seg07 Rope4_Seg06
Rope4_Seg08 Rope4_Seg07
Rope4_Seg09 Rope4_Seg08
L_rear_hand01 Rope4_Seg09
L_rear_hand02 Rope4_Seg09
L_rear_hand03 Rope4_Seg09
[BasePosition]
#SegmentName Tx, Ty, Tz, Rx, Ry, Rz, BoneLength
MASTER 0.000000 0.000000 0.000000 -90.000000 0.000000 0.000000 10.000000 
root 0.000000 0.000000 0.000000 0.000000 0.000000 0.000000 10.000000 
chest 0.000000 0.000000 0.000000 0.000000 0.000000 0.000000 10.000000 
L_mid_tent01 0.000000 0.000000 0.000000 0.000000 0.000000 0.000000 10.000000 
R_mid_tent01 0.000000 0.000000 0.000000 0.000000 0.000000 0.000000 10.000000 
spine01 0.000000 0.000000 0.000000 0.000000 0.000000 0.000000 10.000000 
Bip01_Neck 0.000000 0.000000 0.000000 0.000000 0.000000 0.000000 10.000000 
L_humerus 0.000000 0.000000 0.000000 0.000000 0.000000 0.000000 10.000000 
R_humerus 0.000000 0.000000 0.000000 0.000000 0.000000 0.000000 10.000000 
weapon_bone 0.000000 0.000000 0.000000 0.000000 0.000000 0.000000 10.000000 
Bip01_Head 0.000000 0.000000 0.000000 0.000000 0.000000 0.000000 10.000000 
eye_left_bone 0.000000 0.000000 0.000000 0.000000 0.000000 0.000000 10.000000 
eye_right_bone 0.000000 0.000000 0.000000 0.000000 0.000000 0.000000 10.000000 
L_forearm 0.000000 0.000000 0.000000 0.000000 0.000000 0.000000 10.000000 
L_front_hand 0.000000 0.000000 0.000000 0.000000 0.000000 0.000000 10.000000 
L_weapon_bone 0.000000 0.000000 0.000000 0.000000 0.000000 0.000000 10.000000 
L_front_hand01_01 0.000000 0.000000 0.000000 0.000000 0.000000 0.000000 10.000000 
L_front_hand02_01 0.000000 0.000000 0.000000 0.000000 0.000000 0.000000 10.000000 
L_front_hand03_01 0.000000 0.000000 0.000000 0.000000 0.000000 0.000000 10.000000 
L_front_hand01_02 0.000000 0.000000 0.000000 0.000000 0.000000 0.000000 10.000000 
L_front_hand02_02 0.000000 0.000000 0.000000 0.000000 0.000000 0.000000 10.000000 
L_front_hand03_02 0.000000 0.000000 0.000000 0.000000 0.000000 0.000000 10.000000 
R_forearm 0.000000 0.000000 0.000000 0.000000 0.000000 0.000000 10.000000 
R_front_hand 0.000000 0.000000 0.000000 0.000000 0.000000 0.000000 10.000000 
R_weapon_bone 0.000000 0.000000 0.000000 0.000000 0.000000 0.000000 10.000000 
R_front_hand01_01 0.000000 0.000000 0.000000 0.000000 0.000000 0.000000 10.000000 
R_front_hand02_01 0.000000 0.000000 0.000000 0.000000 0.000000 0.000000 10.000000 
R_front_hand03_01 0.000000 0.000000 0.000000 0.000000 0.000000 0.000000 10.000000 
R_front_hand01_02 0.000000 0.000000 0.000000 0.000000 0.000000 0.000000 10.000000 
R_front_hand02_02 0.000000 0.000000 0.000000 0.000000 0.000000 0.000000 10.000000 
R_front_hand03_02 0.000000 0.000000 0.000000 0.000000 0.000000 0.000000 10.000000 
null_rope01_connect 0.000000 0.000000 0.000000 0.000000 0.000000 0.000000 10.000000 
Rope1_Seg01 0.000000 0.000000 0.000000 0.000000 0.000000 0.000000 10.000000 
Rope1_Seg02 0.000000 0.000000 0.000000 0.000000 0.000000 0.000000 10.000000 
Rope1_Seg03 0.000000 0.000000 0.000000 0.000000 0.000000 0.000000 10.000000 
Rope1_Seg04 0.000000 0.000000 0.000000 0.000000 0.000000 0.000000 10.000000 
Rope1_Seg05 0.000000 0.000000 0.000000 0.000000 0.000000 0.000000 10.000000 
Rope1_Seg06 0.000000 0.000000 0.000000 0.000000 0.000000 0.000000 10.000000 
Rope1_Seg07 0.000000 0.000000 0.000000 0.000000 0.000000 0.000000 10.000000 
Rope1_Seg09 0.000000 0.000000 0.000000 0.000000 0.000000 0.000000 10.000000 
L_mid_hand01 0.000000 0.000000 0.000000 0.000000 0.000000 0.000000 10.000000 
L_mid_hand02 0.000000 0.000000 0.000000 0.000000 0.000000 0.000000 10.000000 
L_mid_hand03 0.000000 0.000000 0.000000 0.000000 0.000000 0.000000 10.000000 
null_rope02_connect 0.000000 0.000000 0.000000 0.000000 0.000000 0.000000 10.000000 
Rope2_Seg01 0.000000 0.000000 0.000000 0.000000 0.000000 0.000000 10.000000 
Rope2_Seg02 0.000000 0.000000 0.000000 0.000000 0.000000 0.000000 10.000000 
Rope2_Seg03 0.000000 0.000000 0.000000 0.000000 0.000000 0.000000 10.000000 
Rope2_Seg04 0.000000 0.000000 0.000000 0.000000 0.000000 0.000000 10.000000 
Rope2_Seg05 0.000000 0.000000 0.000000 0.000000 0.000000 0.000000 10.000000 
Rope2_Seg06 0.000000 0.000000 0.000000 0.000000 0.000000 0.000000 10.000000 
Rope2_Seg07 0.000000 0.000000 0.000000 0.000000 0.000000 0.000000 10.000000 
Rope2_Seg09 0.000000 0.000000 0.000000 0.000000 0.000000 0.000000 10.000000 
R_mid_hand01 0.000000 0.000000 0.000000 0.000000 0.000000 0.000000 10.000000 
R_mid_hand02 0.000000 0.000000 0.000000 0.000000 0.000000 0.000000 10.000000 
R_mid_hand03 0.000000 0.000000 0.000000 0.000000 0.000000 0.000000 10.000000 
spine02 0.000000 0.000000 0.000000 0.000000 0.000000 0.000000 10.000000 
spine03 0.000000 0.000000 0.000000 0.000000 0.000000 0.000000 10.000000 
pelvis 0.000000 0.000000 0.000000 0.000000 0.000000 0.000000 10.000000 
null_rope03_connect 0.000000 0.000000 0.000000 0.000000 0.000000 0.000000 10.000000 
null_rope04_connect 0.000000 0.000000 0.000000 0.000000 0.000000 0.000000 10.000000 
Rope3_Seg01 0.000000 0.000000 0.000000 0.000000 0.000000 0.000000 10.000000 
Rope3_Seg02 0.000000 0.000000 0.000000 0.000000 0.000000 0.000000 10.000000 
Rope3_Seg03 0.000000 0.000000 0.000000 0.000000 0.000000 0.000000 10.000000 
Rope3_Seg04 0.000000 0.000000 0.000000 0.000000 0.000000 0.000000 10.000000 
Rope3_Seg05 0.000000 0.000000 0.000000 0.000000 0.000000 0.000000 10.000000 
Rope3_Seg06 0.000000 0.000000 0.000000 0.000000 0.000000 0.000000 10.000000 
Rope3_Seg07 0.000000 0.000000 0.000000 0.000000 0.000000 0.000000 10.000000 
Rope3_Seg08 0.000000 0.000000 0.000000 0.000000 0.000000 0.000000 10.000000 
Rope3_Seg09 0.000000 0.000000 0.000000 0.000000 0.000000 0.000000 10.000000 
R_rear_hand01 0.000000 0.000000 0.000000 0.000000 0.000000 0.000000 10.000000 
R_rear_hand02 0.000000 0.000000 0.000000 0.000000 0.000000 0.000000 10.000000 
R_rear_hand03 0.000000 0.000000 0.000000 0.000000 0.000000 0.000000 10.000000 
Rope4_Seg01 0.000000 0.000000 0.000000 0.000000 0.000000 0.000000 10.000000 
Rope4_Seg02 0.000000 0.000000 0.000000 0.000000 0.000000 0.000000 10.000000 
Rope4_Seg03 0.000000 0.000000 0.000000 0.000000 0.000000 0.000000 10.000000 
Rope4_Seg04 0.000000 0.000000 0.000000 0.000000 0.000000 0.000000 10.000000 
Rope4_Seg05 0.000000 0.000000 0.000000 0.000000 0.000000 0.000000 10.000000 
Rope4_Seg06 0.000000 0.000000 0.000000 0.000000 0.000000 0.000000 10.000000 
Rope4_Seg07 0.000000 0.000000 0.000000 0.000000 0.000000 0.000000 10.000000 
Rope4_Seg08 0.000000 0.000000 0.000000 0.000000 0.000000 0.000000 10.000000 
Rope4_Seg09 0.000000 0.000000 0.000000 0.000000 0.000000 0.000000 10.000000 
L_rear_hand01 0.000000 0.000000 0.000000 0.000000 0.000000 0.000000 10.000000 
L_rear_hand02 0.000000 0.000000 0.000000 0.000000 0.000000 0.000000 10.000000 
L_rear_hand03 0.000000 0.000000 0.000000 0.000000 0.000000 0.000000 10.000000 
#Beginning of Data. Separated by tabs
#Fr	Tx	Ty	Tz	Rx	Ry	Rz	SF
[MASTER]
10 0.000000 0.000000 0.000000 0.001660 0.001660 0.001660 0.000000
11 0.000000 0.000000 0.000000 0.001660 0.001660 0.001660 0.000000
[root]
10 -91.694725 -62.707848 1291.223145 -91.945816 -13.674769 -90.571831 1295.992920
11 -87.738853 -62.690491 1326.975708 -91.924965 -16.104921 -90.477547 1331.349976
[chest]
10 -84.512650 -34.090519 0.000000 -4.290196 -0.605675 -174.701248 91.129311
11 -84.512650 -34.090519 0.000000 -4.388194 -0.607544 -174.868942 91.129311
[L_mid_tent01]
10 27.485455 22.070944 -251.112854 3.072783 27.437979 68.711815 253.574921
11 27.453215 22.089418 -250.905670 5.463952 28.521809 73.327026 253.367859
[R_mid_tent01]
10 23.228794 24.509907 226.238495 169.171188 -43.560352 75.086823 228.744751
11 23.228794 24.509907 226.238495 161.441406 -47.380970 86.529099 228.744751
[spine01]
10 -0.361383 -0.195265 0.000000 -0.047079 0.399210 11.653902 0.410763
11 -0.361383 -0.195265 0.000000 0.013845 0.402999 11.902743 0.410763
[Bip01_Neck]
10 165.484543 71.581718 0.000119 175.896118 1.177290 24.871183 180.302734
11 165.484543 71.581718 0.000119 175.896118 1.177290 24.871183 180.302734
[L_humerus]
10 -13.983130 -135.272980 -120.471481 -91.667137 0.809380 -167.391479 181.680161
11 -13.983130 -135.272980 -120.471481 -109.324631 -10.260188 -152.333435 181.680161
[R_humerus]
10 -13.983309 -135.273102 125.287651 103.020271 1.569275 -168.586563 184.909012
11 -13.983309 -135.273102 125.287651 119.339378 11.451672 -152.727966 184.909012
[weapon_bone]
10 235.964890 -300.705902 0.000000 0.000000 -89.951546 -128.212341 382.234833
11 235.964890 -300.705902 0.000000 0.000000 -89.951546 -128.212341 382.234833
[Bip01_Head]
10 245.142960 152.689285 8.359642 2.629417 2.622235 -41.334248 288.927277
11 247.181824 148.607620 7.952013 2.615055 2.741727 -42.100788 288.524384
[eye_left_bone]
10 -24.626970 125.451866 -64.772606 0.000000 -90.000000 -99.840431 143.318359
11 -24.626970 125.451866 -64.772606 0.000000 -90.000000 -99.840431 143.318359
[eye_right_bone]
10 -24.626970 125.451866 64.327362 0.000000 -89.960434 80.159386 143.117676
11 -24.626970 125.451866 64.327362 0.000000 -89.960434 80.159386 143.117676
[L_forearm]
10 322.776093 0.000000 -0.000119 0.000047 0.002347 -87.687088 322.776093
11 322.776093 0.000000 -0.000119 0.000017 0.002347 -89.149834 322.776093
[L_front_hand]
10 241.149185 -0.042021 -3.300071 -177.735550 -0.137211 -77.882881 241.171753
11 241.149185 -0.042021 -3.300071 -177.733521 -0.056157 -80.028175 241.171753
[L_weapon_bone]
10 156.183838 0.000000 0.000000 0.001660 0.001660 0.001660 156.183838
11 156.183838 0.000000 0.000000 0.001660 0.001660 0.001660 156.183838
[L_front_hand01_01]
10 86.095154 20.947098 -0.655860 0.383269 -0.458875 -1.865464 88.609184
11 86.095154 20.947098 -0.655860 0.384996 -0.457243 -2.077694 88.609184
[L_front_hand02_01]
10 86.935165 -11.437475 24.513514 116.907127 1.173111 0.249385 91.046425
11 86.935165 -11.437475 24.513514 116.909264 1.362545 0.345733 91.046425
[L_front_hand03_01]
10 86.637497 -14.123976 -20.424902 -118.343506 -2.239775 -1.461576 90.126129
11 86.637497 -14.123976 -20.424902 -118.347397 -2.427448 -1.360367 90.126129
[L_front_hand01_02]
10 71.020905 -0.000179 0.000030 0.001534 0.001777 -8.378850 71.020905
11 71.020905 -0.000179 0.000030 0.001534 0.001777 -8.378850 71.020905
[L_front_hand02_02]
10 71.020927 -0.000119 0.000060 0.001534 0.001777 -8.378850 71.020927
11 71.020927 -0.000119 0.000060 0.001534 0.001777 -8.378850 71.020927
[L_front_hand03_02]
10 71.020905 -0.000060 0.000060 0.001534 0.001777 -8.378850 71.020905
11 71.020905 -0.000060 0.000060 0.001534 0.001777 -8.378850 71.020905
[R_forearm]
10 322.776428 -0.000060 0.000030 0.212001 -0.028158 -82.985413 322.776428
11 322.776428 -0.000060 0.000030 0.207856 -0.034204 -81.462494 322.776428
[R_front_hand]
10 238.847015 -0.006795 2.210259 -1.670633 -0.431136 -93.250534 238.857239
11 238.847015 -0.006795 2.210259 -1.672657 -0.416886 -92.753014 238.857239
[R_weapon_bone]
10 155.664093 0.002503 -0.000030 0.003487 0.001180 -90.988930 155.664078
11 155.664093 0.002503 -0.000030 0.003487 0.001180 -90.988930 155.664078
[R_front_hand01_01]
10 87.624611 14.231146 22.918642 -116.915710 1.588609 -0.351407 91.683487
11 87.624611 14.231146 22.918642 -116.917992 1.736417 -0.426380 91.683487
[R_front_hand02_01]
10 89.356956 14.367283 -19.491137 118.362183 -2.369256 1.630165 92.579636
11 89.356956 14.367283 -19.491137 118.365402 -2.514455 1.551775 92.579636
[R_front_hand03_01]
10 87.286232 -22.307278 -0.143439 -0.382807 -0.245436 2.090179 90.091743
11 87.286232 -22.307278 -0.143439 -0.383590 -0.243973 2.255648 90.091743
[R_front_hand01_02]
10 71.020905 0.000060 0.000119 0.001777 0.001534 8.377220 71.020905
11 71.020905 0.000060 0.000119 0.001777 0.001534 8.377220 71.020905
[R_front_hand02_02]
10 71.020844 -0.000030 -0.000119 0.001777 0.001534 8.377220 71.020836
11 71.020844 -0.000030 -0.000119 0.001777 0.001534 8.377220 71.020836
[R_front_hand03_02]
10 71.020905 0.000000 0.000030 0.001777 0.001534 8.377220 71.020905
11 71.020905 0.000000 0.000030 0.001777 0.001534 8.377220 71.020905
[null_rope01_connect]
10 328.732483 0.000000 -0.000238 -139.252838 -60.302879 175.073318 328.732483
11 328.732483 0.000000 -0.000238 -136.841217 -58.963062 171.146271 328.732483
[Rope1_Seg01]
10 0.000114 0.000000 0.000000 155.924255 57.491302 -173.644928 0.000114
11 0.000110 0.000000 0.000000 141.785675 63.193539 167.135696 0.000110
[Rope1_Seg02]
10 139.999863 -0.000179 0.000000 5.644028 -33.813728 9.142392 139.999863
11 139.999863 -0.000179 0.000000 -0.182969 -29.072018 13.785015 139.999863
[Rope1_Seg03]
10 139.999924 0.000060 -0.000060 0.071303 -6.748596 3.525464 139.999924
11 139.999924 0.000060 -0.000060 -0.348815 -5.975247 7.086525 139.999924
[Rope1_Seg04]
10 139.999924 -0.000060 -0.000119 -0.216628 -4.212925 7.676467 139.999924
11 139.999924 -0.000060 -0.000119 0.071792 -6.251097 10.527901 139.999924
[Rope1_Seg05]
10 139.999832 0.000119 -0.000060 0.212527 -2.933909 6.659061 139.999832
11 139.999832 0.000119 -0.000060 0.477348 -3.790549 6.437086 139.999832
[Rope1_Seg06]
10 139.999954 0.000119 -0.000060 0.152883 -1.739072 3.076282 139.999954
11 139.999954 0.000119 -0.000060 0.338430 -2.051621 3.300324 139.999954
[Rope1_Seg07]
10 139.999985 0.000060 0.000000 0.148189 -1.183291 2.097330 139.999985
11 139.999985 0.000060 0.000000 0.300595 -1.389409 2.273353 139.999985
[Rope1_Seg09]
10 121.602913 0.000119 -0.000089 -73.805649 -1.358314 0.848869 121.602913
11 121.602913 0.000119 -0.000089 -76.633896 -1.357600 0.848026 121.602913
[L_mid_hand01]
10 103.859421 1.038730 8.195221 104.389336 -4.119114 -1.586563 104.187431
11 103.859421 1.038730 8.195221 104.367256 -2.308342 -1.124166 104.187431
[L_mid_hand02]
10 105.572853 -4.139662 -10.864139 -135.926407 7.113628 -6.692754 106.211075
11 105.572853 -4.139662 -10.864139 -135.776062 5.811439 -5.347265 106.211075
[L_mid_hand03]
10 104.641464 17.579376 -3.913581 -18.732859 1.152304 7.300995 106.179977
11 104.641464 17.579376 -3.913581 -18.757410 0.554689 5.531611 106.179977
[null_rope02_connect]
10 328.732849 0.000179 -0.000119 -135.297653 47.447453 12.018415 328.732849
11 328.732849 0.000179 -0.000119 -135.408020 41.960960 17.082453 328.732849
[Rope2_Seg01]
10 0.000095 0.000153 0.000019 -48.738617 18.384192 44.186733 0.000181
11 0.000095 0.000153 0.000021 -51.496811 19.610384 34.865788 0.000181
[Rope2_Seg02]
10 139.999741 -0.000060 -0.000119 -0.924350 0.156352 8.098557 139.999756
11 139.999741 -0.000060 -0.000119 -1.947544 -14.110365 10.864161 139.999756
[Rope2_Seg03]
10 140.000107 0.000030 0.000000 -0.271462 0.128773 3.528201 140.000107
11 140.000107 0.000030 0.000000 -0.095856 -5.069059 3.991885 140.000107
[Rope2_Seg04]
10 139.999802 0.000000 -0.000060 -1.951332 -20.051956 14.775967 139.999802
11 139.999802 0.000000 -0.000060 -0.542976 -15.023155 10.143149 139.999802
[Rope2_Seg05]
10 139.999985 -0.000060 0.000119 0.593286 -12.012386 8.580655 139.999985
11 139.999985 -0.000060 0.000119 0.575578 -9.988076 6.741947 139.999985
[Rope2_Seg06]
10 139.999893 -0.000030 -0.000119 0.966087 -5.011031 3.881023 139.999893
11 139.999893 -0.000030 -0.000119 0.629462 -4.121534 2.914069 139.999893
[Rope2_Seg07]
10 139.999893 0.000060 -0.000060 0.813166 -3.023732 2.439312 139.999893
11 139.999893 0.000060 -0.000060 0.504447 -2.559055 1.855483 139.999893
[Rope2_Seg09]
10 121.338966 0.000089 -0.000060 25.692253 -1.464001 -0.646698 121.338966
11 121.338966 0.000089 -0.000060 33.791534 -1.359405 -0.845402 121.338966
[R_mid_hand01]
10 104.680779 11.144459 -10.335981 -47.361366 3.372015 5.831483 105.778534
11 104.680779 11.144459 -10.335981 -47.384258 2.963522 5.452604 105.778534
[R_mid_hand02]
10 104.070427 2.443552 8.231699 75.621735 -2.789600 1.249883 104.424065
11 104.070427 2.443552 8.231699 75.626297 -2.250001 1.111093 104.424065
[R_mid_hand03]
10 106.028137 -11.221827 -5.996406 -164.402649 2.643801 -6.675955 106.788818
11 106.028137 -11.221827 -5.996406 -164.381912 2.495983 -6.140520 106.788818
[spine02]
10 129.756927 0.001550 0.000119 -0.107882 -4.276711 -6.352268 129.756927
11 129.756927 0.001550 0.000119 -0.117926 -4.275195 -6.218055 129.756927
[spine03]
10 78.960579 0.027014 -1.513369 1.960608 -0.805808 17.237207 78.975082
11 78.936363 0.031217 -1.749768 1.921658 -0.449655 15.793539 78.955757
[pelvis]
10 169.435242 0.051022 0.000000 0.012504 2.213957 -3.535486 169.435257
11 169.435242 0.051022 0.000000 0.013114 2.047295 -3.419937 169.435257
[null_rope03_connect]
10 -1.257226 -2.466202 137.391083 126.042702 -88.666168 -41.497845 137.418976
11 -1.257226 -2.466202 137.391083 129.283112 -88.729431 -41.341648 137.418976
[null_rope04_connect]
10 -1.259640 -2.480268 -137.844437 126.042702 -88.666168 -41.497845 137.872513
11 -1.259640 -2.480268 -137.844437 129.283112 -88.729431 -41.341648 137.872513
[Rope3_Seg01]
10 0.000010 0.000029 -0.000114 -64.825989 33.318687 5.913627 0.000118
11 0.000010 0.000028 -0.000110 -56.745064 27.933897 12.333282 0.000114
[Rope3_Seg02]
10 139.999924 -0.000119 0.000060 -15.385662 21.355024 -5.932141 139.999924
11 139.999924 -0.000119 0.000060 -17.565348 21.045671 -5.234721 139.999924
[Rope3_Seg03]
10 139.999924 -0.000119 0.000119 -3.184114 7.761595 0.395562 139.999924
11 139.999924 -0.000119 0.000119 -6.079412 11.620547 -0.473161 139.999924
[Rope3_Seg04]
10 139.999924 0.000119 0.000000 -3.866279 11.909596 0.299764 139.999924
11 139.999924 0.000119 0.000000 -3.575055 12.177482 2.621152 139.999924
[Rope3_Seg05]
10 139.999924 -0.000238 0.000060 -3.152080 26.864834 1.893978 139.999924
11 139.999924 -0.000238 0.000060 -0.477796 21.709351 9.019414 139.999924
[Rope3_Seg06]
10 139.999893 -0.000119 -0.000060 2.147310 19.296911 2.584661 139.999893
11 139.999893 -0.000119 -0.000060 2.437032 15.304313 6.881222 139.999893
[Rope3_Seg07]
10 139.999771 0.000060 -0.000119 2.437337 9.336473 0.960105 139.999771
11 139.999771 0.000060 -0.000119 2.361947 8.270193 3.277568 139.999771
[Rope3_Seg08]
10 139.999985 -0.000060 0.000000 1.921488 5.087987 0.309848 139.999985
11 139.999985 -0.000060 0.000000 1.876904 4.714946 1.658207 139.999985
[Rope3_Seg09]
10 90.185997 -0.000179 -0.000060 73.754128 -1.360687 -0.845603 90.185997
11 90.185997 -0.000179 -0.000060 71.794220 -1.357548 -0.846250 90.185997
[R_rear_hand01]
10 103.366196 -6.073594 -10.757982 -156.515869 7.757967 -6.662709 104.101845
11 103.366196 -6.073594 -10.757982 -156.308716 7.078650 -5.091642 104.101845
[R_rear_hand02]
10 100.509819 12.039542 -7.992327 -38.518436 4.573291 8.739699 101.543350
11 100.509819 12.039542 -7.992327 -38.615368 3.513769 7.407870 101.543350
[R_rear_hand03]
10 101.539970 5.215704 5.435467 84.275200 -6.534032 4.517918 101.819031
11 101.539970 5.215704 5.435467 84.293884 -4.841074 4.348503 101.819031
[Rope4_Seg01]
10 -0.000007 0.000029 -0.000095 -19.444656 29.359148 173.495590 0.000100
11 -0.000008 0.000023 -0.000097 -14.473383 31.962175 177.688293 0.000101
[Rope4_Seg02]
10 139.999985 0.000060 0.000119 9.618623 3.353111 15.447344 139.999985
11 139.999985 0.000060 0.000119 5.913876 4.054694 10.900570 139.999985
[Rope4_Seg03]
10 139.999924 0.000000 -0.000238 8.365959 5.699852 21.318075 139.999924
11 139.999924 0.000000 -0.000238 5.892286 4.295804 14.697287 139.999924
[Rope4_Seg04]
10 139.999985 0.000000 0.000119 3.491314 6.141613 19.089096 139.999985
11 139.999985 0.000000 0.000119 3.945250 3.065414 15.679583 139.999985
[Rope4_Seg05]
10 139.999802 -0.000060 -0.000119 2.604216 23.013248 11.772492 139.999802
11 139.999802 -0.000060 -0.000119 2.575168 30.673796 6.455570 139.999802
[Rope4_Seg06]
10 139.999924 0.000000 0.000060 4.732930 22.408796 7.548501 139.999924
11 139.999924 0.000000 0.000060 10.058048 29.981382 1.869047 139.999924
[Rope4_Seg07]
10 139.999802 0.000000 0.000000 1.958650 9.851407 3.859919 139.999802
11 139.999802 0.000000 0.000000 7.699089 11.699840 -0.140102 139.999802
[Rope4_Seg08]
10 139.999924 0.000000 0.000119 -0.109067 5.144361 1.833540 139.999924
11 139.999924 0.000000 0.000119 4.107364 5.541427 -0.820144 139.999924
[Rope4_Seg09]
10 90.185791 0.000060 0.000060 -121.115959 2.227399 0.850288 90.185791
11 90.185791 0.000060 0.000060 -119.089378 2.230313 0.848671 90.185791
[L_rear_hand01]
10 101.696655 -8.392275 -7.654577 -38.668488 -2.692059 173.624619 102.329041
11 101.696655 -8.392275 -7.654577 -38.726254 -1.499787 175.112961 102.329041
[L_rear_hand02]
10 102.726799 -1.568258 5.773216 84.299889 3.532827 175.785294 102.900848
11 102.726799 -1.568258 5.773216 84.314156 1.635883 175.972610 102.900848
[L_rear_hand03]
10 104.552910 9.721220 -10.420293 -156.166351 -6.549110 -176.123459 105.519653
11 104.552910 9.721220 -10.420293 -155.979141 -5.772759 -177.873901 105.519653
